<mxfile host="app.diagrams.net" agent="Mozilla/5.0 (Windows NT 10.0; Win64; x64) AppleWebKit/537.36 (KHTML, like Gecko) Chrome/131.0.0.0 Safari/537.36 Edg/131.0.0.0" version="24.8.6" pages="5">
  <diagram name="第 1 页" id="dA4kamS1iZFP9Pa1gLe5">
    <mxGraphModel dx="862" dy="456" grid="1" gridSize="10" guides="1" tooltips="1" connect="1" arrows="1" fold="1" page="1" pageScale="1" pageWidth="827" pageHeight="1169" math="1" shadow="0">
      <root>
        <mxCell id="0" />
        <mxCell id="1" parent="0" />
        <mxCell id="GwNIT4zZAR5UQP4eY1kp-2" value="" style="strokeWidth=2;html=1;shape=mxgraph.flowchart.annotation_1;align=left;pointerEvents=1;rotation=-90;" vertex="1" parent="1">
          <mxGeometry x="250.04" y="54.22" width="15" height="196.06" as="geometry" />
        </mxCell>
        <mxCell id="GwNIT4zZAR5UQP4eY1kp-3" value="" style="strokeWidth=2;html=1;shape=mxgraph.flowchart.annotation_1;align=left;pointerEvents=1;rotation=-90;" vertex="1" parent="1">
          <mxGeometry x="369" y="132.25" width="15" height="40" as="geometry" />
        </mxCell>
        <mxCell id="GwNIT4zZAR5UQP4eY1kp-4" value="" style="strokeWidth=2;html=1;shape=mxgraph.flowchart.annotation_1;align=left;pointerEvents=1;rotation=-90;" vertex="1" parent="1">
          <mxGeometry x="472.86" y="69.36" width="15" height="165.78" as="geometry" />
        </mxCell>
        <mxCell id="GwNIT4zZAR5UQP4eY1kp-5" value="" style="strokeWidth=2;html=1;shape=mxgraph.flowchart.annotation_1;align=left;pointerEvents=1;rotation=-90;" vertex="1" parent="1">
          <mxGeometry x="706.43" y="36.93" width="15" height="230.64" as="geometry" />
        </mxCell>
        <mxCell id="GwNIT4zZAR5UQP4eY1kp-7" value="$$t_1$$" style="text;html=1;align=center;verticalAlign=middle;resizable=0;points=[];autosize=1;strokeColor=none;fillColor=none;" vertex="1" parent="1">
          <mxGeometry x="322" y="160" width="70" height="30" as="geometry" />
        </mxCell>
        <mxCell id="GwNIT4zZAR5UQP4eY1kp-8" value="$$t_0$$" style="text;html=1;align=center;verticalAlign=middle;resizable=0;points=[];autosize=1;strokeColor=none;fillColor=none;" vertex="1" parent="1">
          <mxGeometry x="127" y="160" width="70" height="30" as="geometry" />
        </mxCell>
        <mxCell id="GwNIT4zZAR5UQP4eY1kp-9" value="$$t_2$$" style="text;html=1;align=center;verticalAlign=middle;resizable=0;points=[];autosize=1;strokeColor=none;fillColor=none;" vertex="1" parent="1">
          <mxGeometry x="362" y="160" width="70" height="30" as="geometry" />
        </mxCell>
        <mxCell id="GwNIT4zZAR5UQP4eY1kp-10" value="$$t_3$$" style="text;html=1;align=center;verticalAlign=middle;resizable=0;points=[];autosize=1;strokeColor=none;fillColor=none;" vertex="1" parent="1">
          <mxGeometry x="530" y="160" width="70" height="30" as="geometry" />
        </mxCell>
        <mxCell id="GwNIT4zZAR5UQP4eY1kp-11" value="$$t_4$$" style="text;html=1;align=center;verticalAlign=middle;resizable=0;points=[];autosize=1;strokeColor=none;fillColor=none;" vertex="1" parent="1">
          <mxGeometry x="566" y="160" width="70" height="30" as="geometry" />
        </mxCell>
        <mxCell id="GwNIT4zZAR5UQP4eY1kp-12" value="" style="strokeWidth=2;html=1;shape=mxgraph.flowchart.annotation_1;align=left;pointerEvents=1;rotation=-90;" vertex="1" parent="1">
          <mxGeometry x="573.87" y="133.38" width="15" height="37.75" as="geometry" />
        </mxCell>
        <mxCell id="GwNIT4zZAR5UQP4eY1kp-13" value="$$t_5$$" style="text;html=1;align=center;verticalAlign=middle;resizable=0;points=[];autosize=1;strokeColor=none;fillColor=none;" vertex="1" parent="1">
          <mxGeometry x="790" y="160" width="70" height="30" as="geometry" />
        </mxCell>
      </root>
    </mxGraphModel>
  </diagram>
  <diagram id="kH2NmWItnsKpYTszYTEb" name="UE PHY DL Top">
    <mxGraphModel dx="1861" dy="1716" grid="1" gridSize="10" guides="1" tooltips="1" connect="1" arrows="1" fold="1" page="1" pageScale="1" pageWidth="827" pageHeight="1169" math="1" shadow="0">
      <root>
        <mxCell id="0" />
        <mxCell id="1" parent="0" />
        <mxCell id="NX2Mk6jen8T6Z611iBAQ-23" value="&lt;b&gt;NB 1Tx, UE 1Rx&lt;/b&gt;" style="text;html=1;align=center;verticalAlign=middle;resizable=0;points=[];autosize=1;strokeColor=none;fillColor=default;" vertex="1" parent="1">
          <mxGeometry x="375" y="-336" width="110" height="30" as="geometry" />
        </mxCell>
        <mxCell id="NX2Mk6jen8T6Z611iBAQ-13" style="edgeStyle=orthogonalEdgeStyle;rounded=0;orthogonalLoop=1;jettySize=auto;html=1;exitX=0.5;exitY=1;exitDx=0;exitDy=0;" edge="1" parent="1" source="NX2Mk6jen8T6Z611iBAQ-1" target="NX2Mk6jen8T6Z611iBAQ-16">
          <mxGeometry relative="1" as="geometry">
            <mxPoint x="180" y="270" as="targetPoint" />
          </mxGeometry>
        </mxCell>
        <mxCell id="NX2Mk6jen8T6Z611iBAQ-1" value="PSS detector" style="whiteSpace=wrap;html=1;" vertex="1" parent="1">
          <mxGeometry x="120" y="110" width="120" height="60" as="geometry" />
        </mxCell>
        <mxCell id="NX2Mk6jen8T6Z611iBAQ-17" style="edgeStyle=orthogonalEdgeStyle;rounded=0;orthogonalLoop=1;jettySize=auto;html=1;exitX=0.5;exitY=1;exitDx=0;exitDy=0;" edge="1" parent="1" source="NX2Mk6jen8T6Z611iBAQ-2">
          <mxGeometry relative="1" as="geometry">
            <mxPoint x="670" y="280" as="targetPoint" />
          </mxGeometry>
        </mxCell>
        <mxCell id="NX2Mk6jen8T6Z611iBAQ-2" value="PDCCH receiver" style="whiteSpace=wrap;html=1;" vertex="1" parent="1">
          <mxGeometry x="610" y="110" width="120" height="60" as="geometry" />
        </mxCell>
        <mxCell id="NX2Mk6jen8T6Z611iBAQ-19" style="edgeStyle=orthogonalEdgeStyle;rounded=0;orthogonalLoop=1;jettySize=auto;html=1;exitX=0.5;exitY=1;exitDx=0;exitDy=0;" edge="1" parent="1" source="NX2Mk6jen8T6Z611iBAQ-3">
          <mxGeometry relative="1" as="geometry">
            <mxPoint x="830" y="280" as="targetPoint" />
          </mxGeometry>
        </mxCell>
        <mxCell id="NX2Mk6jen8T6Z611iBAQ-3" value="PDSCH receiver" style="whiteSpace=wrap;html=1;" vertex="1" parent="1">
          <mxGeometry x="770" y="110" width="120" height="60" as="geometry" />
        </mxCell>
        <mxCell id="NX2Mk6jen8T6Z611iBAQ-21" style="edgeStyle=orthogonalEdgeStyle;rounded=0;orthogonalLoop=1;jettySize=auto;html=1;exitX=0.5;exitY=1;exitDx=0;exitDy=0;" edge="1" parent="1" source="NX2Mk6jen8T6Z611iBAQ-4">
          <mxGeometry relative="1" as="geometry">
            <mxPoint x="990" y="280" as="targetPoint" />
          </mxGeometry>
        </mxCell>
        <mxCell id="NX2Mk6jen8T6Z611iBAQ-4" value="CSI-RS receiver" style="whiteSpace=wrap;html=1;" vertex="1" parent="1">
          <mxGeometry x="930" y="110" width="120" height="60" as="geometry" />
        </mxCell>
        <mxCell id="NX2Mk6jen8T6Z611iBAQ-7" style="edgeStyle=orthogonalEdgeStyle;rounded=0;orthogonalLoop=1;jettySize=auto;html=1;exitX=0.5;exitY=1;exitDx=0;exitDy=0;entryX=0.5;entryY=0;entryDx=0;entryDy=0;" edge="1" parent="1" source="NX2Mk6jen8T6Z611iBAQ-6" target="NX2Mk6jen8T6Z611iBAQ-1">
          <mxGeometry relative="1" as="geometry" />
        </mxCell>
        <mxCell id="NX2Mk6jen8T6Z611iBAQ-26" style="edgeStyle=orthogonalEdgeStyle;rounded=0;orthogonalLoop=1;jettySize=auto;html=1;exitX=0.5;exitY=1;exitDx=0;exitDy=0;entryX=0;entryY=0.5;entryDx=0;entryDy=0;" edge="1" parent="1" source="NX2Mk6jen8T6Z611iBAQ-6" target="NX2Mk6jen8T6Z611iBAQ-8">
          <mxGeometry relative="1" as="geometry" />
        </mxCell>
        <mxCell id="NX2Mk6jen8T6Z611iBAQ-6" value="RF/ADC" style="whiteSpace=wrap;html=1;strokeColor=default;" vertex="1" parent="1">
          <mxGeometry x="120" y="-202" width="120" height="60" as="geometry" />
        </mxCell>
        <mxCell id="NX2Mk6jen8T6Z611iBAQ-10" style="edgeStyle=orthogonalEdgeStyle;rounded=0;orthogonalLoop=1;jettySize=auto;html=1;entryX=0.5;entryY=0;entryDx=0;entryDy=0;" edge="1" parent="1" target="NX2Mk6jen8T6Z611iBAQ-2">
          <mxGeometry relative="1" as="geometry">
            <mxPoint x="340" as="sourcePoint" />
            <Array as="points">
              <mxPoint x="512" />
              <mxPoint x="670" />
            </Array>
          </mxGeometry>
        </mxCell>
        <mxCell id="NX2Mk6jen8T6Z611iBAQ-11" style="edgeStyle=orthogonalEdgeStyle;rounded=0;orthogonalLoop=1;jettySize=auto;html=1;entryX=0.5;entryY=0;entryDx=0;entryDy=0;" edge="1" parent="1" target="NX2Mk6jen8T6Z611iBAQ-3">
          <mxGeometry relative="1" as="geometry">
            <mxPoint x="340" as="sourcePoint" />
            <Array as="points">
              <mxPoint x="512" />
              <mxPoint x="830" />
            </Array>
          </mxGeometry>
        </mxCell>
        <mxCell id="NX2Mk6jen8T6Z611iBAQ-12" style="edgeStyle=orthogonalEdgeStyle;rounded=0;orthogonalLoop=1;jettySize=auto;html=1;entryX=0.5;entryY=0;entryDx=0;entryDy=0;" edge="1" parent="1" target="NX2Mk6jen8T6Z611iBAQ-4">
          <mxGeometry relative="1" as="geometry">
            <mxPoint x="340" as="sourcePoint" />
            <Array as="points">
              <mxPoint x="512" />
              <mxPoint x="990" />
            </Array>
          </mxGeometry>
        </mxCell>
        <mxCell id="6Wh9h7lEq4sKiHQeUL6_-2" style="edgeStyle=orthogonalEdgeStyle;rounded=0;orthogonalLoop=1;jettySize=auto;html=1;entryX=0.5;entryY=0;entryDx=0;entryDy=0;" edge="1" parent="1" target="6Wh9h7lEq4sKiHQeUL6_-1">
          <mxGeometry relative="1" as="geometry">
            <mxPoint x="340" as="sourcePoint" />
          </mxGeometry>
        </mxCell>
        <mxCell id="qeCc7ap8aWwIBtj1qfNq-4" style="edgeStyle=orthogonalEdgeStyle;rounded=0;orthogonalLoop=1;jettySize=auto;html=1;entryX=0.5;entryY=0;entryDx=0;entryDy=0;" edge="1" parent="1" source="NX2Mk6jen8T6Z611iBAQ-8" target="qeCc7ap8aWwIBtj1qfNq-2">
          <mxGeometry relative="1" as="geometry" />
        </mxCell>
        <mxCell id="NX2Mk6jen8T6Z611iBAQ-8" value="FFT" style="whiteSpace=wrap;html=1;" vertex="1" parent="1">
          <mxGeometry x="280" y="-120" width="120" height="60" as="geometry" />
        </mxCell>
        <mxCell id="NX2Mk6jen8T6Z611iBAQ-16" value="&lt;div&gt;symb_head_offset_in_samples&lt;/div&gt;&lt;div&gt;PSS-ID&lt;/div&gt;" style="text;html=1;align=center;verticalAlign=middle;resizable=0;points=[];autosize=1;strokeColor=none;fillColor=none;" vertex="1" parent="1">
          <mxGeometry x="85" y="275" width="190" height="40" as="geometry" />
        </mxCell>
        <mxCell id="NX2Mk6jen8T6Z611iBAQ-18" value="&lt;div&gt;DCI-CRC&lt;/div&gt;DCI[6]" style="text;html=1;align=center;verticalAlign=middle;resizable=0;points=[];autosize=1;strokeColor=none;fillColor=none;" vertex="1" parent="1">
          <mxGeometry x="635" y="277" width="70" height="40" as="geometry" />
        </mxCell>
        <mxCell id="NX2Mk6jen8T6Z611iBAQ-20" value="&lt;div&gt;PDSCH-CRC&lt;/div&gt;PDSCH payload" style="text;html=1;align=center;verticalAlign=middle;resizable=0;points=[];autosize=1;strokeColor=none;fillColor=none;" vertex="1" parent="1">
          <mxGeometry x="782" y="277" width="110" height="40" as="geometry" />
        </mxCell>
        <mxCell id="NX2Mk6jen8T6Z611iBAQ-22" value="RSRP&lt;div&gt;RSSI&lt;/div&gt;&lt;div&gt;noise&lt;/div&gt;&lt;div&gt;CTO&lt;/div&gt;&lt;div&gt;CFO&lt;/div&gt;" style="text;html=1;align=center;verticalAlign=middle;resizable=0;points=[];autosize=1;strokeColor=none;fillColor=none;" vertex="1" parent="1">
          <mxGeometry x="961" y="274" width="60" height="90" as="geometry" />
        </mxCell>
        <mxCell id="NX2Mk6jen8T6Z611iBAQ-24" value="baseband time-domain sample" style="text;html=1;align=center;verticalAlign=middle;resizable=0;points=[];autosize=1;strokeColor=none;fillColor=none;" vertex="1" parent="1">
          <mxGeometry x="-10" y="-108" width="190" height="30" as="geometry" />
        </mxCell>
        <mxCell id="NX2Mk6jen8T6Z611iBAQ-25" value="baseband frequency-domain sample" style="text;html=1;align=center;verticalAlign=middle;resizable=0;points=[];autosize=1;strokeColor=none;fillColor=none;" vertex="1" parent="1">
          <mxGeometry x="340" y="-30" width="220" height="30" as="geometry" />
        </mxCell>
        <mxCell id="NX2Mk6jen8T6Z611iBAQ-28" style="edgeStyle=orthogonalEdgeStyle;rounded=0;orthogonalLoop=1;jettySize=auto;html=1;entryX=0.5;entryY=0;entryDx=0;entryDy=0;strokeColor=default;" edge="1" parent="1" source="NX2Mk6jen8T6Z611iBAQ-27" target="NX2Mk6jen8T6Z611iBAQ-6">
          <mxGeometry relative="1" as="geometry" />
        </mxCell>
        <mxCell id="NX2Mk6jen8T6Z611iBAQ-27" value="wireless channel" style="ellipse;shape=cloud;whiteSpace=wrap;html=1;strokeColor=default;" vertex="1" parent="1">
          <mxGeometry x="70" y="-361" width="220" height="80" as="geometry" />
        </mxCell>
        <mxCell id="NX2Mk6jen8T6Z611iBAQ-30" style="edgeStyle=orthogonalEdgeStyle;rounded=0;orthogonalLoop=1;jettySize=auto;html=1;exitX=0.5;exitY=1;exitDx=0;exitDy=0;strokeColor=default;" edge="1" parent="1" source="NX2Mk6jen8T6Z611iBAQ-29" target="NX2Mk6jen8T6Z611iBAQ-27">
          <mxGeometry relative="1" as="geometry" />
        </mxCell>
        <mxCell id="NX2Mk6jen8T6Z611iBAQ-29" value="DAC/RF" style="whiteSpace=wrap;html=1;strokeColor=default;" vertex="1" parent="1">
          <mxGeometry x="120" y="-510" width="120" height="60" as="geometry" />
        </mxCell>
        <mxCell id="NX2Mk6jen8T6Z611iBAQ-32" value="" style="edgeStyle=none;orthogonalLoop=1;jettySize=auto;html=1;rounded=0;entryX=0.5;entryY=0;entryDx=0;entryDy=0;" edge="1" parent="1" target="NX2Mk6jen8T6Z611iBAQ-29">
          <mxGeometry width="100" relative="1" as="geometry">
            <mxPoint x="180" y="-600" as="sourcePoint" />
            <mxPoint x="370" y="-600" as="targetPoint" />
            <Array as="points" />
          </mxGeometry>
        </mxCell>
        <mxCell id="NX2Mk6jen8T6Z611iBAQ-33" value="NB baseband signal" style="text;html=1;align=center;verticalAlign=middle;resizable=0;points=[];autosize=1;strokeColor=none;fillColor=none;" vertex="1" parent="1">
          <mxGeometry x="120" y="-630" width="130" height="30" as="geometry" />
        </mxCell>
        <mxCell id="6Wh9h7lEq4sKiHQeUL6_-3" style="edgeStyle=orthogonalEdgeStyle;rounded=0;orthogonalLoop=1;jettySize=auto;html=1;exitX=0.5;exitY=1;exitDx=0;exitDy=0;" edge="1" parent="1" source="6Wh9h7lEq4sKiHQeUL6_-1">
          <mxGeometry relative="1" as="geometry">
            <mxPoint x="512" y="280" as="targetPoint" />
          </mxGeometry>
        </mxCell>
        <mxCell id="6Wh9h7lEq4sKiHQeUL6_-1" value="PBCH receiver" style="whiteSpace=wrap;html=1;" vertex="1" parent="1">
          <mxGeometry x="452" y="110" width="120" height="60" as="geometry" />
        </mxCell>
        <mxCell id="6Wh9h7lEq4sKiHQeUL6_-4" value="fn_offset&lt;div&gt;MIB-CRC&lt;/div&gt;&lt;div&gt;MIB&lt;/div&gt;" style="text;html=1;align=center;verticalAlign=middle;resizable=0;points=[];autosize=1;strokeColor=none;fillColor=none;" vertex="1" parent="1">
          <mxGeometry x="477" y="282" width="70" height="60" as="geometry" />
        </mxCell>
        <mxCell id="qeCc7ap8aWwIBtj1qfNq-1" style="edgeStyle=orthogonalEdgeStyle;rounded=0;orthogonalLoop=1;jettySize=auto;html=1;exitX=0.5;exitY=1;exitDx=0;exitDy=0;" edge="1" parent="1" source="qeCc7ap8aWwIBtj1qfNq-2" target="qeCc7ap8aWwIBtj1qfNq-3">
          <mxGeometry relative="1" as="geometry">
            <mxPoint x="340" y="270" as="targetPoint" />
          </mxGeometry>
        </mxCell>
        <mxCell id="qeCc7ap8aWwIBtj1qfNq-2" value="SSS receiver" style="whiteSpace=wrap;html=1;" vertex="1" parent="1">
          <mxGeometry x="280" y="110" width="120" height="60" as="geometry" />
        </mxCell>
        <mxCell id="qeCc7ap8aWwIBtj1qfNq-3" value="&lt;div&gt;PCI&lt;/div&gt;" style="text;html=1;align=center;verticalAlign=middle;resizable=0;points=[];autosize=1;strokeColor=none;fillColor=none;" vertex="1" parent="1">
          <mxGeometry x="320" y="280" width="40" height="30" as="geometry" />
        </mxCell>
      </root>
    </mxGraphModel>
  </diagram>
  <diagram id="qdg8cA9dThSpUUfENa5T" name="UE PHY DL Top/baseband channel">
    <mxGraphModel dx="1861" dy="1716" grid="1" gridSize="10" guides="1" tooltips="1" connect="1" arrows="1" fold="1" page="1" pageScale="1" pageWidth="827" pageHeight="1169" math="1" shadow="0">
      <root>
        <mxCell id="0" />
        <mxCell id="1" parent="0" />
        <mxCell id="4gRz050cHhQECZ5e8lxm-1" value="&lt;b&gt;NB 1Tx, UE 1Rx&lt;/b&gt;" style="text;html=1;align=center;verticalAlign=middle;resizable=0;points=[];autosize=1;strokeColor=none;fillColor=default;" vertex="1" parent="1">
          <mxGeometry x="375" y="-336" width="110" height="30" as="geometry" />
        </mxCell>
        <mxCell id="4gRz050cHhQECZ5e8lxm-12" value="RF/ADC" style="whiteSpace=wrap;html=1;strokeColor=#CCCCCC;" vertex="1" parent="1">
          <mxGeometry x="120" y="-202" width="120" height="60" as="geometry" />
        </mxCell>
        <mxCell id="4gRz050cHhQECZ5e8lxm-21" value="baseband time-domain sample" style="text;html=1;align=center;verticalAlign=middle;resizable=0;points=[];autosize=1;strokeColor=none;fillColor=none;" vertex="1" parent="1">
          <mxGeometry x="-10" y="-108" width="190" height="30" as="geometry" />
        </mxCell>
        <mxCell id="4gRz050cHhQECZ5e8lxm-23" style="edgeStyle=orthogonalEdgeStyle;rounded=0;orthogonalLoop=1;jettySize=auto;html=1;entryX=0.5;entryY=0;entryDx=0;entryDy=0;strokeColor=#CCCCCC;" edge="1" parent="1" source="4gRz050cHhQECZ5e8lxm-24" target="4gRz050cHhQECZ5e8lxm-12">
          <mxGeometry relative="1" as="geometry" />
        </mxCell>
        <mxCell id="4gRz050cHhQECZ5e8lxm-24" value="wireless channel" style="ellipse;shape=cloud;whiteSpace=wrap;html=1;strokeColor=#CCCCCC;" vertex="1" parent="1">
          <mxGeometry x="70" y="-361" width="220" height="80" as="geometry" />
        </mxCell>
        <mxCell id="4gRz050cHhQECZ5e8lxm-25" style="edgeStyle=orthogonalEdgeStyle;rounded=0;orthogonalLoop=1;jettySize=auto;html=1;exitX=0.5;exitY=1;exitDx=0;exitDy=0;strokeColor=#CCCCCC;" edge="1" parent="1" source="4gRz050cHhQECZ5e8lxm-27" target="4gRz050cHhQECZ5e8lxm-24">
          <mxGeometry relative="1" as="geometry" />
        </mxCell>
        <mxCell id="4gRz050cHhQECZ5e8lxm-26" style="edgeStyle=orthogonalEdgeStyle;rounded=0;orthogonalLoop=1;jettySize=auto;html=1;entryX=0.5;entryY=0;entryDx=0;entryDy=0;fillColor=#666666;strokeColor=default;" edge="1" parent="1" target="4gRz050cHhQECZ5e8lxm-31">
          <mxGeometry relative="1" as="geometry">
            <mxPoint x="180" y="-540" as="sourcePoint" />
          </mxGeometry>
        </mxCell>
        <mxCell id="4gRz050cHhQECZ5e8lxm-27" value="DAC/RF" style="whiteSpace=wrap;html=1;strokeColor=#CCCCCC;" vertex="1" parent="1">
          <mxGeometry x="120" y="-510" width="120" height="60" as="geometry" />
        </mxCell>
        <mxCell id="4gRz050cHhQECZ5e8lxm-28" value="" style="edgeStyle=none;orthogonalLoop=1;jettySize=auto;html=1;rounded=0;entryX=0.5;entryY=0;entryDx=0;entryDy=0;" edge="1" parent="1" target="4gRz050cHhQECZ5e8lxm-27">
          <mxGeometry width="100" relative="1" as="geometry">
            <mxPoint x="180" y="-600" as="sourcePoint" />
            <mxPoint x="370" y="-600" as="targetPoint" />
            <Array as="points" />
          </mxGeometry>
        </mxCell>
        <mxCell id="4gRz050cHhQECZ5e8lxm-29" value="NB baseband signal" style="text;html=1;align=center;verticalAlign=middle;resizable=0;points=[];autosize=1;strokeColor=none;fillColor=none;" vertex="1" parent="1">
          <mxGeometry x="120" y="-630" width="130" height="30" as="geometry" />
        </mxCell>
        <mxCell id="4gRz050cHhQECZ5e8lxm-30" style="edgeStyle=orthogonalEdgeStyle;rounded=0;orthogonalLoop=1;jettySize=auto;html=1;exitX=0.5;exitY=1;exitDx=0;exitDy=0;fillColor=#666666;" edge="1" parent="1" source="4gRz050cHhQECZ5e8lxm-31">
          <mxGeometry relative="1" as="geometry">
            <mxPoint x="180" y="-120" as="targetPoint" />
            <Array as="points">
              <mxPoint x="-80" y="-120" />
            </Array>
          </mxGeometry>
        </mxCell>
        <mxCell id="4gRz050cHhQECZ5e8lxm-31" value="等效基带信道模型" style="whiteSpace=wrap;html=1;fillColor=default;" vertex="1" parent="1">
          <mxGeometry x="-140" y="-351" width="120" height="60" as="geometry" />
        </mxCell>
        <mxCell id="DQFMvhzJ5EYpet5vGo_S-9" style="edgeStyle=orthogonalEdgeStyle;rounded=0;orthogonalLoop=1;jettySize=auto;html=1;exitX=0.5;exitY=1;exitDx=0;exitDy=0;entryX=0.5;entryY=0;entryDx=0;entryDy=0;" edge="1" parent="1">
          <mxGeometry relative="1" as="geometry">
            <mxPoint x="180" y="-142" as="sourcePoint" />
            <mxPoint x="180" y="110" as="targetPoint" />
          </mxGeometry>
        </mxCell>
        <mxCell id="DQFMvhzJ5EYpet5vGo_S-10" style="edgeStyle=orthogonalEdgeStyle;rounded=0;orthogonalLoop=1;jettySize=auto;html=1;exitX=0.5;exitY=1;exitDx=0;exitDy=0;entryX=0;entryY=0.5;entryDx=0;entryDy=0;" edge="1" parent="1" target="DQFMvhzJ5EYpet5vGo_S-15">
          <mxGeometry relative="1" as="geometry">
            <mxPoint x="180" y="-142" as="sourcePoint" />
            <Array as="points">
              <mxPoint x="180" y="-90" />
            </Array>
          </mxGeometry>
        </mxCell>
        <mxCell id="DQFMvhzJ5EYpet5vGo_S-15" value="FFT" style="whiteSpace=wrap;html=1;" vertex="1" parent="1">
          <mxGeometry x="280" y="-120" width="120" height="60" as="geometry" />
        </mxCell>
        <mxCell id="DQFMvhzJ5EYpet5vGo_S-20" value="baseband time-domain sample" style="text;html=1;align=center;verticalAlign=middle;resizable=0;points=[];autosize=1;strokeColor=none;fillColor=none;" vertex="1" parent="1">
          <mxGeometry x="-10" y="-108" width="190" height="30" as="geometry" />
        </mxCell>
        <mxCell id="7gzGnlf3V6gMXrIFmesC-1" style="edgeStyle=orthogonalEdgeStyle;rounded=0;orthogonalLoop=1;jettySize=auto;html=1;exitX=0.5;exitY=1;exitDx=0;exitDy=0;" edge="1" parent="1" source="7gzGnlf3V6gMXrIFmesC-2" target="7gzGnlf3V6gMXrIFmesC-14">
          <mxGeometry relative="1" as="geometry">
            <mxPoint x="180" y="270" as="targetPoint" />
          </mxGeometry>
        </mxCell>
        <mxCell id="7gzGnlf3V6gMXrIFmesC-2" value="PSS detector" style="whiteSpace=wrap;html=1;" vertex="1" parent="1">
          <mxGeometry x="120" y="110" width="120" height="60" as="geometry" />
        </mxCell>
        <mxCell id="7gzGnlf3V6gMXrIFmesC-3" style="edgeStyle=orthogonalEdgeStyle;rounded=0;orthogonalLoop=1;jettySize=auto;html=1;exitX=0.5;exitY=1;exitDx=0;exitDy=0;" edge="1" parent="1" source="7gzGnlf3V6gMXrIFmesC-4">
          <mxGeometry relative="1" as="geometry">
            <mxPoint x="670" y="280" as="targetPoint" />
          </mxGeometry>
        </mxCell>
        <mxCell id="7gzGnlf3V6gMXrIFmesC-4" value="PDCCH receiver" style="whiteSpace=wrap;html=1;" vertex="1" parent="1">
          <mxGeometry x="610" y="110" width="120" height="60" as="geometry" />
        </mxCell>
        <mxCell id="7gzGnlf3V6gMXrIFmesC-5" style="edgeStyle=orthogonalEdgeStyle;rounded=0;orthogonalLoop=1;jettySize=auto;html=1;exitX=0.5;exitY=1;exitDx=0;exitDy=0;" edge="1" parent="1" source="7gzGnlf3V6gMXrIFmesC-6">
          <mxGeometry relative="1" as="geometry">
            <mxPoint x="830" y="280" as="targetPoint" />
          </mxGeometry>
        </mxCell>
        <mxCell id="7gzGnlf3V6gMXrIFmesC-6" value="PDSCH receiver" style="whiteSpace=wrap;html=1;" vertex="1" parent="1">
          <mxGeometry x="770" y="110" width="120" height="60" as="geometry" />
        </mxCell>
        <mxCell id="7gzGnlf3V6gMXrIFmesC-7" style="edgeStyle=orthogonalEdgeStyle;rounded=0;orthogonalLoop=1;jettySize=auto;html=1;exitX=0.5;exitY=1;exitDx=0;exitDy=0;" edge="1" parent="1" source="7gzGnlf3V6gMXrIFmesC-8">
          <mxGeometry relative="1" as="geometry">
            <mxPoint x="990" y="280" as="targetPoint" />
          </mxGeometry>
        </mxCell>
        <mxCell id="7gzGnlf3V6gMXrIFmesC-8" value="CSI-RS receiver" style="whiteSpace=wrap;html=1;" vertex="1" parent="1">
          <mxGeometry x="930" y="110" width="120" height="60" as="geometry" />
        </mxCell>
        <mxCell id="7gzGnlf3V6gMXrIFmesC-9" style="edgeStyle=orthogonalEdgeStyle;rounded=0;orthogonalLoop=1;jettySize=auto;html=1;entryX=0.5;entryY=0;entryDx=0;entryDy=0;" edge="1" parent="1" target="7gzGnlf3V6gMXrIFmesC-4">
          <mxGeometry relative="1" as="geometry">
            <mxPoint x="340" as="sourcePoint" />
            <Array as="points">
              <mxPoint x="512" />
              <mxPoint x="670" />
            </Array>
          </mxGeometry>
        </mxCell>
        <mxCell id="7gzGnlf3V6gMXrIFmesC-10" style="edgeStyle=orthogonalEdgeStyle;rounded=0;orthogonalLoop=1;jettySize=auto;html=1;entryX=0.5;entryY=0;entryDx=0;entryDy=0;" edge="1" parent="1" target="7gzGnlf3V6gMXrIFmesC-6">
          <mxGeometry relative="1" as="geometry">
            <mxPoint x="340" as="sourcePoint" />
            <Array as="points">
              <mxPoint x="512" />
              <mxPoint x="830" />
            </Array>
          </mxGeometry>
        </mxCell>
        <mxCell id="7gzGnlf3V6gMXrIFmesC-11" style="edgeStyle=orthogonalEdgeStyle;rounded=0;orthogonalLoop=1;jettySize=auto;html=1;entryX=0.5;entryY=0;entryDx=0;entryDy=0;" edge="1" parent="1" target="7gzGnlf3V6gMXrIFmesC-8">
          <mxGeometry relative="1" as="geometry">
            <mxPoint x="340" as="sourcePoint" />
            <Array as="points">
              <mxPoint x="512" />
              <mxPoint x="990" />
            </Array>
          </mxGeometry>
        </mxCell>
        <mxCell id="7gzGnlf3V6gMXrIFmesC-12" style="edgeStyle=orthogonalEdgeStyle;rounded=0;orthogonalLoop=1;jettySize=auto;html=1;entryX=0.5;entryY=0;entryDx=0;entryDy=0;" edge="1" parent="1" target="7gzGnlf3V6gMXrIFmesC-20">
          <mxGeometry relative="1" as="geometry">
            <mxPoint x="340" as="sourcePoint" />
          </mxGeometry>
        </mxCell>
        <mxCell id="7gzGnlf3V6gMXrIFmesC-13" style="edgeStyle=orthogonalEdgeStyle;rounded=0;orthogonalLoop=1;jettySize=auto;html=1;entryX=0.5;entryY=0;entryDx=0;entryDy=0;" edge="1" parent="1" target="7gzGnlf3V6gMXrIFmesC-23">
          <mxGeometry relative="1" as="geometry">
            <mxPoint x="340" y="-60" as="sourcePoint" />
          </mxGeometry>
        </mxCell>
        <mxCell id="7gzGnlf3V6gMXrIFmesC-14" value="&lt;div&gt;symb_head_offset_in_samples&lt;/div&gt;&lt;div&gt;PSS-ID&lt;/div&gt;" style="text;html=1;align=center;verticalAlign=middle;resizable=0;points=[];autosize=1;strokeColor=none;fillColor=none;" vertex="1" parent="1">
          <mxGeometry x="85" y="275" width="190" height="40" as="geometry" />
        </mxCell>
        <mxCell id="7gzGnlf3V6gMXrIFmesC-15" value="&lt;div&gt;DCI-CRC&lt;/div&gt;DCI[6]" style="text;html=1;align=center;verticalAlign=middle;resizable=0;points=[];autosize=1;strokeColor=none;fillColor=none;" vertex="1" parent="1">
          <mxGeometry x="635" y="277" width="70" height="40" as="geometry" />
        </mxCell>
        <mxCell id="7gzGnlf3V6gMXrIFmesC-16" value="&lt;div&gt;PDSCH-CRC&lt;/div&gt;PDSCH payload" style="text;html=1;align=center;verticalAlign=middle;resizable=0;points=[];autosize=1;strokeColor=none;fillColor=none;" vertex="1" parent="1">
          <mxGeometry x="782" y="277" width="110" height="40" as="geometry" />
        </mxCell>
        <mxCell id="7gzGnlf3V6gMXrIFmesC-17" value="RSRP&lt;div&gt;RSSI&lt;/div&gt;&lt;div&gt;noise&lt;/div&gt;&lt;div&gt;CTO&lt;/div&gt;&lt;div&gt;CFO&lt;/div&gt;" style="text;html=1;align=center;verticalAlign=middle;resizable=0;points=[];autosize=1;strokeColor=none;fillColor=none;" vertex="1" parent="1">
          <mxGeometry x="961" y="274" width="60" height="90" as="geometry" />
        </mxCell>
        <mxCell id="7gzGnlf3V6gMXrIFmesC-18" value="baseband frequency-domain sample" style="text;html=1;align=center;verticalAlign=middle;resizable=0;points=[];autosize=1;strokeColor=none;fillColor=none;" vertex="1" parent="1">
          <mxGeometry x="340" y="-30" width="220" height="30" as="geometry" />
        </mxCell>
        <mxCell id="7gzGnlf3V6gMXrIFmesC-19" style="edgeStyle=orthogonalEdgeStyle;rounded=0;orthogonalLoop=1;jettySize=auto;html=1;exitX=0.5;exitY=1;exitDx=0;exitDy=0;" edge="1" parent="1" source="7gzGnlf3V6gMXrIFmesC-20">
          <mxGeometry relative="1" as="geometry">
            <mxPoint x="512" y="280" as="targetPoint" />
          </mxGeometry>
        </mxCell>
        <mxCell id="7gzGnlf3V6gMXrIFmesC-20" value="PBCH receiver" style="whiteSpace=wrap;html=1;" vertex="1" parent="1">
          <mxGeometry x="452" y="110" width="120" height="60" as="geometry" />
        </mxCell>
        <mxCell id="7gzGnlf3V6gMXrIFmesC-21" value="fn_offset&lt;div&gt;MIB-CRC&lt;/div&gt;&lt;div&gt;MIB&lt;/div&gt;" style="text;html=1;align=center;verticalAlign=middle;resizable=0;points=[];autosize=1;strokeColor=none;fillColor=none;" vertex="1" parent="1">
          <mxGeometry x="477" y="282" width="70" height="60" as="geometry" />
        </mxCell>
        <mxCell id="7gzGnlf3V6gMXrIFmesC-22" style="edgeStyle=orthogonalEdgeStyle;rounded=0;orthogonalLoop=1;jettySize=auto;html=1;exitX=0.5;exitY=1;exitDx=0;exitDy=0;" edge="1" parent="1" source="7gzGnlf3V6gMXrIFmesC-23" target="7gzGnlf3V6gMXrIFmesC-24">
          <mxGeometry relative="1" as="geometry">
            <mxPoint x="340" y="270" as="targetPoint" />
          </mxGeometry>
        </mxCell>
        <mxCell id="7gzGnlf3V6gMXrIFmesC-23" value="SSS receiver" style="whiteSpace=wrap;html=1;" vertex="1" parent="1">
          <mxGeometry x="280" y="110" width="120" height="60" as="geometry" />
        </mxCell>
        <mxCell id="7gzGnlf3V6gMXrIFmesC-24" value="&lt;div&gt;PCI&lt;/div&gt;" style="text;html=1;align=center;verticalAlign=middle;resizable=0;points=[];autosize=1;strokeColor=none;fillColor=none;" vertex="1" parent="1">
          <mxGeometry x="320" y="280" width="40" height="30" as="geometry" />
        </mxCell>
      </root>
    </mxGraphModel>
  </diagram>
  <diagram id="6XsYhwEw7TbYVL7HoBdC" name="UE PHY DL SS">
    <mxGraphModel dx="1034" dy="547" grid="1" gridSize="10" guides="1" tooltips="1" connect="1" arrows="1" fold="1" page="1" pageScale="1" pageWidth="827" pageHeight="1169" math="1" shadow="0">
      <root>
        <mxCell id="0" />
        <mxCell id="1" parent="0" />
        <mxCell id="q1hJqMujJY-00g-p-tdP-1" value="PSS matched filter" style="whiteSpace=wrap;html=1;" vertex="1" parent="1">
          <mxGeometry x="200" y="170" width="120" height="60" as="geometry" />
        </mxCell>
        <mxCell id="q1hJqMujJY-00g-p-tdP-2" value="peak detection" style="whiteSpace=wrap;html=1;" vertex="1" parent="1">
          <mxGeometry x="200" y="290" width="120" height="60" as="geometry" />
        </mxCell>
        <mxCell id="q1hJqMujJY-00g-p-tdP-3" value="SSS detector" style="whiteSpace=wrap;html=1;" vertex="1" parent="1">
          <mxGeometry x="200" y="410" width="120" height="60" as="geometry" />
        </mxCell>
      </root>
    </mxGraphModel>
  </diagram>
  <diagram id="pEDs_GTXsDQhSRn5u319" name="UE PHY DL PBCH">
    <mxGraphModel dx="1034" dy="547" grid="1" gridSize="10" guides="1" tooltips="1" connect="1" arrows="1" fold="1" page="1" pageScale="1" pageWidth="827" pageHeight="1169" math="1" shadow="0">
      <root>
        <mxCell id="0" />
        <mxCell id="1" parent="0" />
      </root>
    </mxGraphModel>
  </diagram>
</mxfile>
